nColumns=19
nRows=99
DataType=double
version=3
OpenSimVersion=4.1
endheader
time	ground_force_calcn_r_vx	ground_force_calcn_r_vy	ground_force_calcn_r_vz	ground_force_calcn_r_px	ground_force_calcn_r_py	ground_force_calcn_r_pz	ground_force_calcn_r_mx	ground_force_calcn_r_my	ground_force_calcn_r_mz	ground_force_calcn_l_vx	ground_force_calcn_l_vy	ground_force_calcn_l_vz	ground_force_calcn_l_px	ground_force_calcn_l_py	ground_force_calcn_l_pz	ground_force_calcn_l_mx	ground_force_calcn_l_my	ground_force_calcn_l_mz
0	-16.1761	70.4297	5.79867	0.0717232	0	-0.220257	-0.0599219	0.260896	0.0214803	0	0	0	0	0	0	0	0	0
0.01	-22.924	99.8809	6.19517	0.0796457	0	-0.218346	-0.0486281	0.211875	0.0131417	0	0	0	0	0	0	0	0	0
0.02	-30.8585	134.071	6.29378	0.0866227	0	-0.216735	-0.0390828	0.169803	0.00797118	0	0	0	0	0	0	0	0	0
0.03	-39.9132	172.53	5.96477	0.0922503	0	-0.215417	-0.0310131	0.134058	0.0046347	0	0	0	0	0	0	0	0	0
0.04	-49.9395	214.57	5.07796	0.0971339	0	-0.214243	-0.0247847	0.10649	0.00252016	0	0	0	0	0	0	0	0	0
0.05	-60.6898	259.428	3.53438	0.101579	0	-0.21313	-0.0209988	0.0897629	0.00122291	0	0	0	0	0	0	0	0	0
0.06	-71.8503	306.29	1.27607	0.105743	0	-0.212038	-0.0200956	0.0856654	0.000356899	0	0	0	0	0	0	0	0	0
0.07	-83.0724	354.275	-1.70277	0.109699	0	-0.210954	-0.0221871	0.0946202	-0.000454779	0	0	0	0	0	0	0	0	0
0.08	-93.9834	402.425	-5.33884	0.113472	0	-0.209882	-0.0273794	0.117235	-0.00155532	0	0	0	0	0	0	0	0	0
0.09	-104.201	449.689	-9.49503	0.117056	0	-0.208839	-0.0361755	0.156119	-0.0032964	0	0	0	0	0	0	0	0	0
0.1	-113.353	494.948	-13.9652	0.120431	0	-0.207849	-0.0493412	0.215445	-0.0060789	0	0	0	0	0	0	0	0	0
0.11	-121.101	537.132	-18.5102	0.123571	0	-0.206932	-0.0670146	0.297236	-0.0102431	0	0	0	0	0	0	0	0	0
0.12	-127.178	575.338	-22.9077	0.12646	0	-0.206098	-0.0880592	0.398371	-0.0158616	0	0	0	0	0	0	0	0	0
0.13	-131.399	608.857	-26.9645	0.129092	0	-0.205351	-0.110588	0.512426	-0.0226938	0	0	0	0	0	0	0	0	0
0.14	-133.674	637.133	-30.5178	0.13147	0	-0.204689	-0.132545	0.631752	-0.0302601	0	0	0	0	0	0	0	0	0
0.15	-134.001	659.75	-33.4533	0.133606	0	-0.204103	-0.151805	0.74741	-0.0378981	0	0	0	0	0	0	0	0	0
0.16	-132.454	676.43	-35.7164	0.13552	0	-0.203581	-0.166395	0.84976	-0.0448684	0	0	0	0	0	0	0	0	0
0.17	-129.181	687.04	-37.3048	0.137243	0	-0.203107	-0.174894	0.930158	-0.0505056	0	0	0	0	0	0	0	0	0
0.18	-124.382	691.61	-38.2582	0.138809	0	-0.202659	-0.176592	0.981915	-0.0543172	0	0	0	0	0	0	0	0	0
0.19	-118.302	690.358	-38.6491	0.140259	0	-0.202217	-0.171459	1.00055	-0.0560151	0	0	0	0	0	0	0	0	0
0.2	-111.212	683.698	-38.5674	0.141639	0	-0.201759	-0.160077	0.984102	-0.0555132	0	0	0	0	0	0	0	0	0
0.21	-103.394	672.229	-38.1067	0.142996	0	-0.201265	-0.143514	0.933075	-0.0528933	0	0	0	0	0	0	0	0	0
0.22	-95.1223	656.709	-37.3552	0.144375	0	-0.200715	-0.123116	0.849972	-0.0483485	0	0	0	0	0	0	0	0	0
0.23	-86.6508	638.004	-36.3912	0.145824	0	-0.200094	-0.100334	0.738753	-0.0421379	0	0	0	0	0	0	0	0	0
0.24	-78.1998	617.042	-35.2809	0.147384	0	-0.199389	-0.0765908	0.604346	-0.0345549	0	0	0	0	0	0	0	0	0
0.25	-69.9533	594.76	-34.0803	0.149092	0	-0.198593	-0.0531538	0.451926	-0.0258958	0	0	0	0	0	0	0	0	0
0.26	-62.0559	572.066	-32.8381	0.150981	0	-0.197704	-0.0310579	0.286309	-0.0164349	0	0	0	0	0	0	0	0	0
0.27	-54.6148	549.804	-31.5987	0.153074	0	-0.196724	-0.011073	0.111471	-0.00640653	0	0	0	0	0	0	0	0	0
0.28	-47.7028	528.735	-30.4025	0.155389	0	-0.195662	0.00629232	-0.0697437	0.00401029	0	0	0	0	0	0	0	0	0
0.29	-41.3614	509.51	-29.2864	0.157938	0	-0.194536	0.0207475	-0.255578	0.0146905	0	0	0	0	0	0	0	0	0
0.3	-35.6049	492.673	-28.284	0.160726	0	-0.193365	0.0321791	-0.445271	0.0255626	0	0	0	0	0	0	0	0	0
0.31	-30.4244	478.649	-27.4235	0.163748	0	-0.19218	0.0406092	-0.638881	0.0366037	0	0	0	0	0	0	0	0	0
0.32	-25.7926	467.749	-26.7274	0.166992	0	-0.19101	0.0461577	-0.837072	0.0478306	0	0	0	0	0	0	0	0	0
0.33	-21.6637	460.169	-26.2117	0.170439	0	-0.189888	0.0490031	-1.0409	0.0592906	0	0	0	0	0	0	0	0	0
0.34	-17.9749	455.99	-25.886	0.174064	0	-0.188845	0.0493388	-1.25163	0.0710537	0	0	0	0	0	0	0	0	0
0.35	-14.6479	455.19	-25.7552	0.177833	0	-0.187903	0.0473198	-1.47049	0.0832018	0	0	0	0	0	0	0	0	0
0.36	-11.5913	457.656	-25.821	0.181717	0	-0.187075	0.043016	-1.69838	0.0958231	0	0	0	0	0	0	0	0	0
0.37	-8.70717	463.202	-26.0857	0.185683	0	-0.186363	0.0363852	-1.93561	0.109006	0	0	0	0	0	0	0	0	0
0.38	-5.89505	471.581	-26.5533	0.189705	0	-0.185761	0.0272682	-2.18135	0.122825	0	0	0	0	0	0	0	0	0
0.39	-3.05731	482.502	-27.2297	0.193768	0	-0.185252	0.0154187	-2.43336	0.137325	0	0	0	0	0	0	0	0	0
0.4	-0.104385	495.639	-28.1206	0.19786	0	-0.184816	0.000566094	-2.68791	0.152502	0	0	0	0	0	0	0	0	0
0.41	3.04087	510.64	-29.229	0.20198	0	-0.18443	-0.017507	-2.93987	0.168278	0	0	0	0	0	0	0	0	0
0.42	6.44059	527.128	-30.5502	0.206128	0	-0.184075	-0.0388897	-3.18292	0.184469	0	0	0	0	0	0	0	0	0
0.43	10.141	544.714	-32.0685	0.210307	0	-0.183734	-0.063485	-3.41003	0.200756	0	0	0	0	0	0	0	0	0
0.44	14.1729	562.996	-33.7529	0.21452	0	-0.183399	-0.0909791	-3.614	0.216668	0	0	0	0	0	0	0	0	0
0.45	18.5532	581.563	-35.5545	0.218766	0	-0.183063	-0.120852	-3.7882	0.231596	0	0	0	0	0	0	0	0	0
0.46	23.2878	600	-37.4084	0.223038	0	-0.182724	-0.152424	-3.92714	0.244846	0	0	0	0	0	0	0	0	0
0.47	28.3724	617.883	-39.2377	0.227325	0	-0.182385	-0.184923	-4.02718	0.25574	0	0	0	0	0	0	0	0	0
0.48	33.7912	634.781	-40.9587	0.231608	0	-0.182051	-0.21756	-4.08696	0.263707	0	0	0	0	0	0	0	0	0
0.49	39.5172	650.263	-42.4865	0.23587	0	-0.181725	-0.249599	-4.1072	0.268354	0	0	0	0	0	0	0	0	0
0.5	45.5129	663.906	-43.7424	0.240084	0	-0.181413	-0.280405	-4.09032	0.269497	0	0	0	0	0	0	0	0	0
0.51	51.7322	675.29	-44.6584	0.244226	0	-0.18112	-0.309477	-4.03979	0.26716	0	0	0	0	0	0	0	0	0
0.52	58.1218	684.011	-45.1802	0.248268	0	-0.180847	-0.336458	-3.95964	0.261542	0	0	0	0	0	0	0	0	0
0.53	64.6217	689.67	-45.2692	0.252183	0	-0.180597	-0.361109	-3.85391	0.252967	0	0	0	0	0	0	0	0	0
0.54	71.1571	691.869	-44.9038	0.255948	0	-0.180372	-0.383222	-3.72612	0.241833	0	0	0	0	0	0	0	0	0
0.55	77.6268	690.213	-44.0794	0.259542	0	-0.180169	-0.402528	-3.57904	0.22857	1.58761	22.6754	-5.11076	0.672937	0	-0.265093	0.0208517	0.297819	-0.0671248
0.56	83.896	684.311	-42.8064	0.262957	0	-0.17999	-0.418635	-3.41466	0.213601	-0.0524223	38.4065	-5.69508	0.714492	0	-0.284204	-0.000574237	0.420707	-0.0623842
0.57	89.795	673.807	-41.1086	0.266193	0	-0.179829	-0.431003	-3.23418	0.197315	-2.49625	57.7568	-6.22106	0.736771	0	-0.293735	-0.0212033	0.49059	-0.0528421
0.58	95.1249	658.402	-39.0205	0.269257	0	-0.179684	-0.438956	-3.03821	0.180061	-5.90254	80.8124	-6.62384	0.751298	0	-0.29938	-0.0392425	0.537274	-0.044038
0.59	99.6663	637.898	-36.5853	0.272165	0	-0.179553	-0.441754	-2.82738	0.162158	-10.4159	107.466	-6.82308	0.76201	0	-0.303137	-0.055252	0.570066	-0.0361937
0.6	103.191	612.23	-33.853	0.274938	0	-0.179429	-0.438711	-2.60286	0.143924	-16.0937	137.504	-6.73384	0.770616	0	-0.305871	-0.0692463	0.591638	-0.0289736
0.61	105.475	581.493	-30.8811	0.277599	0	-0.179311	-0.429312	-2.36683	0.125694	-22.8745	170.677	-6.27007	0.777936	0	-0.30801	-0.0806694	0.601911	-0.022112
0.62	106.318	545.964	-27.7343	0.280174	0	-0.179192	-0.413283	-2.12228	0.107809	-30.6076	206.662	-5.35296	0.784384	0	-0.309787	-0.0888149	0.599677	-0.0155328
0.63	105.559	506.107	-24.4842	0.282692	0	-0.179068	-0.390626	-1.87287	0.0906048	-39.0567	245.009	-3.9254	0.790173	0	-0.311325	-0.0930066	0.583445	-0.00934764
0.64	103.092	462.579	-21.2085	0.285183	0	-0.178931	-0.361666	-1.62282	0.0744038	-47.9071	285.101	-1.96166	0.795412	0	-0.312698	-0.0926317	0.551264	-0.00379301
0.65	98.8834	416.226	-17.9871	0.287685	0	-0.17877	-0.327086	-1.37679	0.0594976	-56.7926	326.141	0.516667	0.800162	0	-0.31395	-0.0870776	0.500058	0.000792183
0.66	92.9988	368.069	-14.8987	0.29024	0	-0.178573	-0.287951	-1.13965	0.0461307	-65.3429	367.226	3.43181	0.804476	0	-0.315104	-0.0757771	0.425866	0.00397981
0.67	85.6083	319.267	-12.0179	0.292902	0	-0.178326	-0.245656	-0.91615	0.0344859	-73.2356	407.47	6.6701	0.808412	0	-0.316178	-0.0586062	0.326074	0.00533769
0.68	76.9974	271.058	-9.40716	0.295743	0	-0.178008	-0.201841	-0.710552	0.0246599	-80.2171	446.097	10.1099	0.812033	0	-0.317188	-0.0361935	0.201276	0.00456152
0.69	67.5477	224.663	-7.1094	0.298855	0	-0.17759	-0.158177	-0.526094	0.0166481	-86.1058	482.468	13.6316	0.815398	0	-0.318153	-0.00977128	0.0547504	0.00154691
0.7	57.7002	181.194	-5.14319	0.302384	0	-0.177033	-0.116173	-0.364815	0.0103553	-90.788	516.058	17.1199	0.818565	0	-0.319085	0.0190805	-0.108458	-0.00359802
0.71	47.9038	141.558	-3.503	0.306563	0	-0.176263	-0.0770386	-0.227652	0.00563351	-94.2107	546.421	20.4732	0.821588	0	-0.32	0.0485636	-0.281669	-0.0105535
0.72	38.5598	106.394	-2.16718	0.311813	0	-0.175148	-0.0414037	-0.114241	0.00232702	-96.369	573.158	23.6048	0.824515	0	-0.320909	0.0768959	-0.457341	-0.0188351
0.73	29.9816	76.0571	-1.10737	0.318971	0	-0.173413	-0.00915973	-0.0232363	0.000338314	-97.2988	595.916	26.4441	0.827391	0	-0.321823	0.102472	-0.627601	-0.0278501
0.74	22.3783	50.6338	-0.293275	0.329954	0	-0.170397	0.020831	0.0471329	-0.000272997	-97.0693	614.4	28.939	0.830249	0	-0.322756	0.123979	-0.784727	-0.0369616
0.75	15.8587	29.9781	0.306785	0.350245	0	-0.164094	0.0518058	0.09793	0.00100218	-95.7748	628.407	31.0564	0.83312	0	-0.323714	0.140483	-0.921754	-0.0455538
0.76	0	0	0	0	0	0	0	0	0	-93.5285	637.848	32.7774	0.836025	0	-0.324707	0.15146	-1.03293	-0.0530796
0.77	0	0	0	0	0	0	0	0	0	-90.4585	642.777	34.0922	0.838983	0	-0.32574	0.156779	-1.11403	-0.0590872
0.78	0	0	0	0	0	0	0	0	0	-86.7034	643.399	34.9957	0.842015	0	-0.326817	0.156625	-1.16226	-0.0632177
0.79	0	0	0	0	0	0	0	0	0	-82.4066	640.059	35.4886	0.845134	0	-0.327938	0.151379	-1.17578	-0.0651919
0.8	0	0	0	0	0	0	0	0	0	-77.7092	633.216	35.581	0.848355	0	-0.329103	0.141553	-1.15345	-0.0648134
0.81	0	0	0	0	0	0	0	0	0	-72.7424	623.418	35.2966	0.851689	0	-0.330308	0.127761	-1.09493	-0.0619928
0.82	0	0	0	0	0	0	0	0	0	-67.6244	611.261	34.6755	0.855139	0	-0.331548	0.110726	-1.00085	-0.0567764
0.83	0	0	0	0	0	0	0	0	0	-62.4592	597.372	33.7757	0.858705	0	-0.332821	0.0912717	-0.872941	-0.0493565
0.84	0	0	0	0	0	0	0	0	0	-57.3383	582.386	32.6693	0.86238	0	-0.334118	0.0703142	-0.714182	-0.0400625
0.85	0	0	0	0	0	0	0	0	0	-52.3406	566.924	31.4377	0.866147	0	-0.335431	0.0488165	-0.528752	-0.0293209
0.86	0	0	0	0	0	0	0	0	0	-47.5311	551.574	30.1637	0.869988	0	-0.336747	0.0277233	-0.321715	-0.0175935
0.87	0	0	0	0	0	0	0	0	0	-42.9593	536.877	28.9259	0.873875	0	-0.33805	0.00789216	-0.0986312	-0.00531406
0.88	0	0	0	0	0	0	0	0	0	-38.6568	523.307	27.7925	0.877779	0	-0.339321	-0.00996393	0.134885	0.00716363
0.89	0	0	0	0	0	0	0	0	0	-34.6356	511.268	26.8164	0.881664	0	-0.340535	-0.0253209	0.37377	0.0196045
0.9	0	0	0	0	0	0	0	0	0	-30.8873	501.089	26.0316	0.885496	0	-0.341666	-0.0378486	0.614023	0.0318985
0.91	0	0	0	0	0	0	0	0	0	-27.3831	493.023	25.4542	0.889244	0	-0.342689	-0.0473755	0.85298	0.0440383
0.92	0	0	0	0	0	0	0	0	0	-24.0729	487.251	25.0856	0.892874	0	-0.343577	-0.0538221	1.08939	0.0560862
0.93	0	0	0	0	0	0	0	0	0	-20.8853	483.893	24.9168	0.896362	0	-0.344307	-0.0571051	1.32307	0.068128
0.94	0	0	0	0	0	0	0	0	0	-17.7299	483.019	24.9312	0.899685	0	-0.344867	-0.0570559	1.55438	0.0802301
0.95	0	0	0	0	0	0	0	0	0	-14.5038	484.653	25.1058	0.90283	0	-0.345247	-0.0533894	1.78403	0.0924158
0.96	0	0	0	0	0	0	0	0	0	-11.0983	488.775	25.4125	0.905786	0	-0.345451	-0.0457042	2.01283	0.104651
0.97	0	0	0	0	0	0	0	0	0	-7.40642	495.319	25.8204	0.908555	0	-0.345485	-0.0335155	2.24141	0.116842
0.98	0	0	0	0	0	0	0	0	0	-3.32874	504.163	26.2974	0.911141	0	-0.345365	-0.0163065	2.46974	0.128823
